HIERARCHY
ROOT Root
{
  OFFSET 0.0 0.0 0.0
  CHANNELS 6 Xposition Yposition Zposition Zrotation Yrotation Xrotation
  JOINT Hips
  {
    OFFSET 0.0 100.0 0.0
    CHANNELS 6 Xposition Yposition Zposition Zrotation Yrotation Xrotation
    JOINT Spine1
    {
      OFFSET 5.003913 -0.037094 -0.013727
      CHANNELS 3 Zrotation Yrotation Xrotation
      JOINT Spine2
      {
        OFFSET 7.125363 -1e-06 0.0
        CHANNELS 3 Zrotation Yrotation Xrotation
        JOINT Chest
        {
          OFFSET 7.594027 1e-06 0.0
          CHANNELS 3 Zrotation Yrotation Xrotation
          JOINT Neck1
          {
            OFFSET 26.313086 -0.460272 -0.181672
            CHANNELS 3 Zrotation Yrotation Xrotation
            JOINT Neck2
            {
              OFFSET 8.045911 0.0 0.0
              CHANNELS 3 Zrotation Yrotation Xrotation
              JOINT Head
              {
                OFFSET 6.432774 0.0 0.0
                CHANNELS 3 Zrotation Yrotation Xrotation
                JOINT HeadEnd
                {
                  OFFSET 16.169773 0.06451 0.00362
                  CHANNELS 3 Zrotation Yrotation Xrotation
                }
                JOINT Jaw
                {
                  OFFSET 0.108741 3.12938 0.002639
                  CHANNELS 3 Zrotation Yrotation Xrotation
                }
                JOINT LeftEye
                {
                  OFFSET 4.45173 8.166359 3.206392
                  CHANNELS 3 Zrotation Yrotation Xrotation
                }
                JOINT RightEye
                {
                  OFFSET 4.436895 8.135758 -3.222429
                  CHANNELS 3 Zrotation Yrotation Xrotation
                }
              }
            }
          }
          JOINT LeftShoulder
          {
            OFFSET 23.218927 5.195579 1.621656
            CHANNELS 3 Zrotation Yrotation Xrotation
            JOINT LeftArm
            {
              OFFSET 15.902118 2e-06 -2e-06
              CHANNELS 3 Zrotation Yrotation Xrotation
              JOINT LeftForeArm
              {
                OFFSET 28.739307 0.0 -1e-06
                CHANNELS 3 Zrotation Yrotation Xrotation
                JOINT LeftHand
                {
                  OFFSET 27.093981 -4e-06 0.0
                  CHANNELS 3 Zrotation Yrotation Xrotation
                  JOINT LeftHandThumb1
                  {
                    OFFSET 2.276781 3.380274 0.83384
                    CHANNELS 3 Zrotation Yrotation Xrotation
                    JOINT LeftHandThumb2
                    {
                      OFFSET 4.705309 -1e-06 -1e-06
                      CHANNELS 3 Zrotation Yrotation Xrotation
                      JOINT LeftHandThumb3
                      {
                        OFFSET 2.798515 0.0 3e-06
                        CHANNELS 3 Zrotation Yrotation Xrotation
                        JOINT LeftHandThumbEnd
                        {
                          OFFSET 3.180793 4e-06 -4e-06
                          CHANNELS 3 Zrotation Yrotation Xrotation
                        }
                      }
                    }
                  }
                  JOINT LeftHandIndex1
                  {
                    OFFSET 3.247786 2.352677 0.137192
                    CHANNELS 3 Zrotation Yrotation Xrotation
                    JOINT LeftHandIndex2
                    {
                      OFFSET 6.367095 1e-06 0.0
                      CHANNELS 3 Zrotation Yrotation Xrotation
                      JOINT LeftHandIndex3
                      {
                        OFFSET 3.662364 0.0 0.0
                        CHANNELS 3 Zrotation Yrotation Xrotation
                        JOINT LeftHandIndex4
                        {
                          OFFSET 2.329242 4e-06 -4e-06
                          CHANNELS 3 Zrotation Yrotation Xrotation
                          JOINT LeftHandIndexEnd
                          {
                            OFFSET 2.767823 1e-06 0.0
                            CHANNELS 3 Zrotation Yrotation Xrotation
                          }
                        }
                      }
                    }
                  }
                  JOINT LeftHandMiddle1
                  {
                    OFFSET 3.163612 0.945023 -0.406112
                    CHANNELS 3 Zrotation Yrotation Xrotation
                    JOINT LeftHandMiddle2
                    {
                      OFFSET 6.276789 3e-06 0.0
                      CHANNELS 3 Zrotation Yrotation Xrotation
                      JOINT LeftHandMiddle3
                      {
                        OFFSET 4.35652 -1e-06 4e-06
                        CHANNELS 3 Zrotation Yrotation Xrotation
                        JOINT LeftHandMiddle4
                        {
                          OFFSET 2.996877 0.0 8e-06
                          CHANNELS 3 Zrotation Yrotation Xrotation
                          JOINT LeftHandMiddleEnd
                          {
                            OFFSET 2.323256 3e-06 -4e-06
                            CHANNELS 3 Zrotation Yrotation Xrotation
                          }
                        }
                      }
                    }
                  }
                  JOINT LeftHandRing1
                  {
                    OFFSET 2.882606 -0.309162 0.107445
                    CHANNELS 3 Zrotation Yrotation Xrotation
                    JOINT LeftHandRing2
                    {
                      OFFSET 6.033198 0.0 4e-06
                      CHANNELS 3 Zrotation Yrotation Xrotation
                      JOINT LeftHandRing3
                      {
                        OFFSET 4.350578 3e-06 0.0
                        CHANNELS 3 Zrotation Yrotation Xrotation
                        JOINT LeftHandRing4
                        {
                          OFFSET 2.651321 2e-06 -7e-06
                          CHANNELS 3 Zrotation Yrotation Xrotation
                          JOINT LeftHandRingEnd
                          {
                            OFFSET 1.937663 1e-06 -4e-06
                            CHANNELS 3 Zrotation Yrotation Xrotation
                          }
                        }
                      }
                    }
                  }
                  JOINT LeftHandPinky1
                  {
                    OFFSET 2.865315 -1.525436 0.575687
                    CHANNELS 3 Zrotation Yrotation Xrotation
                    JOINT LeftHandPinky2
                    {
                      OFFSET 5.54936 1e-06 -8e-06
                      CHANNELS 3 Zrotation Yrotation Xrotation
                      JOINT LeftHandPinky3
                      {
                        OFFSET 3.070974 0.0 -4e-06
                        CHANNELS 3 Zrotation Yrotation Xrotation
                        JOINT LeftHandPinky4
                        {
                          OFFSET 1.549672 1e-06 0.0
                          CHANNELS 3 Zrotation Yrotation Xrotation
                          JOINT LeftHandPinkyEnd
                          {
                            OFFSET 1.952123 0.0 0.0
                            CHANNELS 3 Zrotation Yrotation Xrotation
                          }
                        }
                      }
                    }
                  }
                }
              }
            }
          }
          JOINT RightShoulder
          {
            OFFSET 23.161716 5.296122 -1.380114
            CHANNELS 3 Zrotation Yrotation Xrotation
            JOINT RightArm
            {
              OFFSET -16.027195 -2e-06 1.1e-05
              CHANNELS 3 Zrotation Yrotation Xrotation
              JOINT RightForeArm
              {
                OFFSET -28.736639 4e-06 2e-06
                CHANNELS 3 Zrotation Yrotation Xrotation
                JOINT RightHand
                {
                  OFFSET -27.133619 6e-06 0.0
                  CHANNELS 3 Zrotation Yrotation Xrotation
                  JOINT RightHandThumb1
                  {
                    OFFSET -2.274328 -3.351035 -0.83067
                    CHANNELS 3 Zrotation Yrotation Xrotation
                    JOINT RightHandThumb2
                    {
                      OFFSET -4.703594 -3e-06 2e-06
                      CHANNELS 3 Zrotation Yrotation Xrotation
                      JOINT RightHandThumb3
                      {
                        OFFSET -2.794935 -4e-06 -3e-06
                        CHANNELS 3 Zrotation Yrotation Xrotation
                        JOINT RightHandThumbEnd
                        {
                          OFFSET -3.183852 4e-06 1e-06
                          CHANNELS 3 Zrotation Yrotation Xrotation
                        }
                      }
                    }
                  }
                  JOINT RightHandIndex1
                  {
                    OFFSET -3.253496 -2.33755 -0.127667
                    CHANNELS 3 Zrotation Yrotation Xrotation
                    JOINT RightHandIndex2
                    {
                      OFFSET -6.344434 0.0 0.0
                      CHANNELS 3 Zrotation Yrotation Xrotation
                      JOINT RightHandIndex3
                      {
                        OFFSET -3.654871 0.0 -8e-06
                        CHANNELS 3 Zrotation Yrotation Xrotation
                        JOINT RightHandIndex4
                        {
                          OFFSET -2.327586 -1e-06 0.0
                          CHANNELS 3 Zrotation Yrotation Xrotation
                          JOINT RightHandIndexEnd
                          {
                            OFFSET -2.770001 3e-06 8e-06
                            CHANNELS 3 Zrotation Yrotation Xrotation
                          }
                        }
                      }
                    }
                  }
                  JOINT RightHandMiddle1
                  {
                    OFFSET -3.168223 -0.944764 0.411762
                    CHANNELS 3 Zrotation Yrotation Xrotation
                    JOINT RightHandMiddle2
                    {
                      OFFSET -6.266691 -1e-06 -4e-06
                      CHANNELS 3 Zrotation Yrotation Xrotation
                      JOINT RightHandMiddle3
                      {
                        OFFSET -4.348901 0.0 0.0
                        CHANNELS 3 Zrotation Yrotation Xrotation
                        JOINT RightHandMiddle4
                        {
                          OFFSET -3.00024 2e-06 -4e-06
                          CHANNELS 3 Zrotation Yrotation Xrotation
                          JOINT RightHandMiddleEnd
                          {
                            OFFSET -2.321477 -4e-06 -4e-06
                            CHANNELS 3 Zrotation Yrotation Xrotation
                          }
                        }
                      }
                    }
                  }
                  JOINT RightHandRing1
                  {
                    OFFSET -2.885654 0.293261 -0.119232
                    CHANNELS 3 Zrotation Yrotation Xrotation
                    JOINT RightHandRing2
                    {
                      OFFSET -6.032835 -1e-06 -4e-06
                      CHANNELS 3 Zrotation Yrotation Xrotation
                      JOINT RightHandRing3
                      {
                        OFFSET -4.33881 0.0 -4e-06
                        CHANNELS 3 Zrotation Yrotation Xrotation
                        JOINT RightHandRing4
                        {
                          OFFSET -2.654903 -4e-06 -4e-06
                          CHANNELS 3 Zrotation Yrotation Xrotation
                          JOINT RightHandRingEnd
                          {
                            OFFSET -1.935122 0.0 4e-06
                            CHANNELS 3 Zrotation Yrotation Xrotation
                          }
                        }
                      }
                    }
                  }
                  JOINT RightHandPinky1
                  {
                    OFFSET -2.866241 1.503904 -0.60527
                    CHANNELS 3 Zrotation Yrotation Xrotation
                    JOINT RightHandPinky2
                    {
                      OFFSET -5.553177 -2e-06 0.0
                      CHANNELS 3 Zrotation Yrotation Xrotation
                      JOINT RightHandPinky3
                      {
                        OFFSET -3.062664 -1e-06 -4e-06
                        CHANNELS 3 Zrotation Yrotation Xrotation
                        JOINT RightHandPinky4
                        {
                          OFFSET -1.546529 2e-06 4e-06
                          CHANNELS 3 Zrotation Yrotation Xrotation
                          JOINT RightHandPinkyEnd
                          {
                            OFFSET -1.952341 0.0 -4e-06
                            CHANNELS 3 Zrotation Yrotation Xrotation
                          }
                        }
                      }
                    }
                  }
                }
              }
            }
          }
        }
      }
    }
    JOINT LeftLeg
    {
      OFFSET -8.443107 2.567604 10.043214
      CHANNELS 3 Zrotation Yrotation Xrotation
      JOINT LeftShin
      {
        OFFSET 43.229198 1e-06 -1e-06
        CHANNELS 3 Zrotation Yrotation Xrotation
        JOINT LeftFoot
        {
          OFFSET 42.298611 1e-06 1e-06
          CHANNELS 3 Zrotation Yrotation Xrotation
          JOINT LeftToeBase
          {
            OFFSET 14.165858 1e-06 0.0
            CHANNELS 3 Zrotation Yrotation Xrotation
            JOINT LeftToeEnd
            {
              OFFSET 6.7141 -0.234461 0.0
              CHANNELS 3 Zrotation Yrotation Xrotation
            }
          }
        }
      }
    }
    JOINT RightLeg
    {
      OFFSET -8.303923 2.592729 -10.047278
      CHANNELS 3 Zrotation Yrotation Xrotation
      JOINT RightShin
      {
        OFFSET -43.369682 0.0 1e-06
        CHANNELS 3 Zrotation Yrotation Xrotation
        JOINT RightFoot
        {
          OFFSET -42.260784 4e-06 2e-06
          CHANNELS 3 Zrotation Yrotation Xrotation
          JOINT RightToeBase
          {
            OFFSET -14.222245 -2e-06 -1e-06
            CHANNELS 3 Zrotation Yrotation Xrotation
            JOINT RightToeEnd
            {
              OFFSET -6.660062 0.232574 -2e-06
              CHANNELS 3 Zrotation Yrotation Xrotation
            }
          }
        }
      }
    }
  }
}
MOTION
Frames: 4
Frame Time: 0.03333333333333333
0.0 0.0 0.0 0.0 -0.0 0.0 -13.280402 7.522285 116.975227 -159.254929 -82.390289 -18.976395 -7.212121 -1.818826 -0.12329 -13.494009 -0.804684 -0.479051 15.154243 2.69502 -0.63328 33.058319 6.159765 4.396063 -1.239625 -1.435877 11.667713 2.357882 13.7671 22.40309 6e-06 -1e-06 -0.0 -0.207452 -0.433624 -0.471986 1.539712 0.314452 -0.402896 1.233576 -1.108975 -0.646208 -40.112873 -75.901031 48.6577 33.867218 -46.52137 -71.350395 149.304077 1.590108 1.140915 6.253962 28.653961 34.551235 17.636633 -26.322735 52.411201 -19.466663 -14.395598 29.410395 -1e-06 -8.774823 -1e-06 16.575249 -17.575289 5.239365 -0.609776 -1.795653 -3.889327 -4.807089 -11.046813 -2.937851 3e-06 -20.976021 0.0 -5.019973 -25.033562 -4.031883 6e-06 2e-06 1e-06 -10.634536 -5.686974 -3.565586 10.573278 -17.922955 -3.113903 1e-06 -13.821213 1e-06 -0.501778 -31.181511 -4.027017 -11.393227 -58.816071 8.466583 -13.982717 -7.1502 -2.87504 13.772735 -8.401492 -3.218244 0.347733 -34.211559 0.771653 -0.963028 -17.733372 2.621019 -2e-06 2e-06 0.0 -17.346426 -20.095222 -4.201779 21.757566 -1.638375 3.866428 1e-06 -6.338825 0.0 -1.697593 -22.591751 -6.194007 -0.0 -4e-06 -1e-06 100.647964 -80.957451 93.719177 29.639603 -37.294827 -75.353676 147.922668 0.769633 1.085611 -2.076683 26.390514 26.685841 22.182114 -20.375895 49.933327 -16.701811 -16.743525 28.47653 -4e-06 -12.690598 -1e-06 16.385647 -17.995937 2.698628 -0.10592 -1.513856 -4.27588 -5.039039 -5.612869 -2.953557 4e-06 -11.020523 -2e-06 -6.111294 -15.89533 -3.840472 -0.0 -1e-06 1e-06 -10.283367 -5.680287 -4.341839 11.028289 -11.302404 -2.372632 -1.384268 -14.23858 -6.320123 -0.625438 -26.924187 -3.827601 -4.393252 -49.10083 -4.777446 -13.708522 -7.363474 -3.720941 18.141146 -14.052739 -3.242673 7e-06 -18.787266 -1e-06 -0.429711 -8.456043 2.555503 -0.0 2e-06 -0.0 -15.923531 -20.094479 -5.473587 30.419205 -7.190824 1.735925 2e-06 -8.162924 1e-06 -1.8619 -22.861467 -6.167942 -1e-06 1e-06 -1e-06 176.138245 -16.08753 -144.591705 -7.484936 -7.256752 134.330841 -59.275013 -6.258366 -1.120811 -13.934738 1.852371 1.893544 -0.999998 0.0 0.0 -0.039373 -4.949789 122.183449 2.50842 7.796944 -83.610771 -63.03064 -12.590503 -8.907642 -27.200914 0.55652 0.704649 -1.000002 -1e-06 -0.0 
0.0 0.0 0.0 0.0 -0.0 0.0 -13.282676 7.501727 116.966568 -159.131546 -82.403664 -19.174587 -7.213984 -1.797145 -0.142947 -13.509189 -0.806539 -0.480335 15.143806 2.710991 -0.596961 33.166744 6.118099 4.360109 -1.242564 -1.459058 11.570645 2.297027 13.621887 22.344721 6e-06 0.0 -0.0 -0.205341 -0.44648 -0.486662 1.522332 0.294642 -0.422465 1.206609 -1.113836 -0.655403 -39.896694 -75.859009 48.555229 33.810722 -46.622871 -71.261627 149.387344 1.624108 1.119522 6.350883 28.843534 34.780037 17.636635 -26.322729 52.411186 -19.466661 -14.395596 29.410389 -0.0 -8.774822 -1e-06 16.605078 -17.588974 5.237294 -0.609776 -1.795653 -3.889327 -4.807091 -11.046813 -2.93785 5e-06 -20.976021 -1e-06 -5.019972 -25.033564 -4.031881 6e-06 1e-06 1e-06 -10.634535 -5.686971 -3.565589 10.573274 -17.922955 -3.113901 3e-06 -13.821211 0.0 -0.501778 -31.181511 -4.027018 -11.363912 -58.852997 8.432583 -13.982716 -7.150198 -2.875043 13.77273 -8.401492 -3.21824 0.347733 -34.211555 0.771653 -0.963029 -17.73337 2.621019 -0.0 2e-06 2e-06 -17.346418 -20.095221 -4.201782 21.757557 -1.638375 3.866428 1e-06 -6.338825 0.0 -1.697587 -22.591749 -6.194007 0.0 -4e-06 -1e-06 101.266052 -80.959061 93.200653 29.778467 -37.308754 -75.505531 147.886566 0.747939 1.082669 -2.134066 26.452246 26.784298 22.182117 -20.375896 49.933327 -16.701815 -16.743528 28.476536 -3e-06 -12.690604 -0.0 16.46328 -18.020096 2.683725 -0.105919 -1.513856 -4.275882 -5.039042 -5.612873 -2.953555 3e-06 -11.020527 -1e-06 -6.1113 -15.895336 -3.840471 -1e-06 -1e-06 -1e-06 -10.283372 -5.680289 -4.341839 11.028294 -11.302406 -2.372633 -1.38427 -14.238585 -6.320124 -0.625441 -26.924191 -3.827601 -4.374207 -49.156193 -4.801328 -13.708527 -7.363477 -3.72094 18.141151 -14.052739 -3.242674 5e-06 -18.787271 -2e-06 -0.429711 -8.456045 2.555504 -0.0 2e-06 0.0 -15.923538 -20.09449 -5.473585 30.419214 -7.190825 1.735927 2e-06 -8.162927 0.0 -1.861901 -22.861479 -6.167946 -0.0 -4e-06 -1e-06 176.132217 -16.155872 -145.529205 -7.610703 -7.200958 135.635971 -59.053516 -6.421965 -1.128917 -14.08705 1.846922 1.879889 -0.999999 1e-06 1e-06 -0.092964 -4.931331 122.350044 2.458378 7.872844 -83.777748 -63.031658 -12.577593 -8.954578 -27.174999 0.565161 0.700354 -1.000002 1e-06 0.0 
0.0 0.0 0.0 0.0 -0.0 0.0 -13.303163 7.490516 116.945602 -159.094849 -82.396149 -19.262262 -7.221942 -1.771464 -0.157775 -13.519687 -0.811199 -0.488641 15.140432 2.691358 -0.561413 33.237396 6.083981 4.33441 -1.244829 -1.482669 11.467843 2.214578 13.513417 22.265654 5e-06 0.0 -1e-06 -0.204556 -0.457245 -0.498825 1.503372 0.280862 -0.441579 1.182438 -1.120541 -0.659157 -39.737354 -75.822693 48.471523 33.786514 -46.677608 -71.106979 149.414886 1.666188 1.128335 6.494241 29.03566 34.921703 17.636631 -26.322729 52.411201 -19.466665 -14.395596 29.410393 -0.0 -8.774822 -1e-06 16.638254 -17.586 5.219291 -0.609774 -1.795653 -3.889328 -4.80709 -11.046815 -2.937851 4e-06 -20.976021 -3e-06 -5.019969 -25.033566 -4.031885 6e-06 2e-06 0.0 -10.634531 -5.686972 -3.565589 10.573272 -17.922955 -3.113903 3e-06 -13.82121 1e-06 -0.501775 -31.181511 -4.027022 -11.330371 -58.862873 8.390049 -13.982713 -7.150201 -2.875042 13.772731 -8.401491 -3.218243 0.347733 -34.211555 0.771652 -0.963027 -17.73337 2.621017 -1e-06 3e-06 2e-06 -17.346424 -20.095224 -4.201783 21.757559 -1.638374 3.866428 1e-06 -6.338826 -0.0 -1.697589 -22.591751 -6.19401 -1e-06 -4e-06 -2e-06 101.762856 -80.931519 92.801804 29.93643 -37.333878 -75.607887 147.82634 0.739605 1.086226 -2.105345 26.49353 26.829376 22.182121 -20.3759 49.933319 -16.701818 -16.743532 28.476534 -2e-06 -12.690606 0.0 16.556959 -18.056898 2.674743 -0.105919 -1.513857 -4.275882 -5.039042 -5.612874 -2.953555 3e-06 -11.02053 -0.0 -6.1113 -15.895341 -3.840469 0.0 0.0 1e-06 -10.283373 -5.680291 -4.341837 11.028297 -11.302411 -2.372633 -1.38427 -14.23859 -6.320124 -0.625443 -26.92421 -3.827599 -4.386006 -49.232094 -4.800669 -13.708528 -7.363479 -3.720938 18.141151 -14.052743 -3.242675 4e-06 -18.787279 -0.0 -0.429712 -8.456047 2.555503 1e-06 3e-06 -0.0 -15.923545 -20.094498 -5.473581 30.419218 -7.190826 1.735927 2e-06 -8.162931 0.0 -1.861904 -22.861488 -6.167946 -1e-06 -1e-06 -1e-06 176.104095 -16.20871 -146.16214 -7.707249 -7.209786 136.549561 -58.871479 -6.545884 -1.129879 -14.182241 1.839062 1.874816 -0.999999 -1e-06 -0.0 -0.197344 -4.860533 122.525085 2.445335 8.107118 -83.995483 -63.120735 -12.54276 -8.981131 -27.054304 0.575832 0.700055 -1.000002 -0.0 -0.0 
0.0 0.0 0.0 0.0 -0.0 0.0 -13.339252 7.462615 116.908958 -159.176819 -82.36956 -19.194038 -7.21095 -1.759138 -0.168425 -13.531527 -0.807982 -0.499598 15.124749 2.637644 -0.539743 33.259319 6.063254 4.331856 -1.246327 -1.486908 11.377568 2.089567 13.41222 22.131472 6e-06 -2e-06 -1e-06 -0.204317 -0.461915 -0.503376 1.484843 0.27422 -0.452866 1.163982 -1.122945 -0.655356 -39.560406 -75.808815 48.299606 33.738495 -46.727497 -70.917732 149.393204 1.708168 1.143445 6.646165 29.226694 34.916763 17.636635 -26.322744 52.411209 -19.466665 -14.395602 29.410395 -1e-06 -8.774824 -1e-06 16.672693 -17.574705 5.181253 -0.609776 -1.795655 -3.88933 -4.807089 -11.046813 -2.937849 5e-06 -20.976021 1e-06 -5.019972 -25.033564 -4.031881 6e-06 -1e-06 -1e-06 -10.634537 -5.68697 -3.565589 10.573277 -17.922953 -3.1139 3e-06 -13.821211 3e-06 -0.501779 -31.181511 -4.027013 -11.306456 -58.845371 8.335539 -13.982718 -7.150197 -2.875044 13.772732 -8.401494 -3.218241 0.347732 -34.211555 0.771657 -0.963029 -17.733372 2.62102 1e-06 2e-06 2e-06 -17.346424 -20.095221 -4.201781 21.757568 -1.638376 3.866427 2e-06 -6.338825 1e-06 -1.697591 -22.591751 -6.194006 0.0 -5e-06 -3e-06 101.958832 -80.84861 92.66375 30.096897 -37.375584 -75.550949 147.760223 0.760762 1.098619 -1.989714 26.52422 26.862328 22.182114 -20.375893 49.933323 -16.701815 -16.743528 28.476536 -3e-06 -12.690603 -0.0 16.634022 -18.094345 2.667615 -0.105919 -1.513857 -4.275882 -5.039041 -5.612871 -2.953557 4e-06 -11.020523 -2e-06 -6.111297 -15.89533 -3.840473 0.0 -1e-06 0.0 -10.283371 -5.680288 -4.341839 11.028294 -11.302404 -2.372632 -1.384269 -14.238581 -6.320122 -0.625436 -26.924189 -3.827604 -4.427812 -49.326317 -4.767628 -13.708524 -7.363475 -3.720941 18.14115 -14.052738 -3.242676 6e-06 -18.787266 -1e-06 -0.42971 -8.456042 2.555504 -1e-06 2e-06 0.0 -15.923536 -20.094482 -5.473587 30.419214 -7.190825 1.735925 2e-06 -8.162922 0.0 -1.8619 -22.861467 -6.167944 -1e-06 -2e-06 -1e-06 176.079849 -16.226997 -146.549744 -7.796644 -7.227439 137.136658 -58.712109 -6.561002 -1.194659 -14.183021 1.834751 1.873727 -0.999999 0.0 0.0 -0.368197 -4.72261 122.661377 2.467257 8.560894 -84.202065 -63.257099 -12.419019 -8.995895 -26.860249 0.581584 0.701195 -1.000001 -1e-06 0.0 
